inDegrees=no
num_controls=7
num_derivatives=13
num_iterations=119
num_multipliers=7
num_parameters=0
num_slacks=7
num_states=26
objective=0.445690
objective_accelerations=0.057194
objective_balance=0.003455
objective_effort=0.022783
objective_height=0.356715
objective_ligament=0.005543
solver_duration=1633.435608
status=Solve_Succeeded
success=true
DataType=double
version=3
OpenSimVersion=4.5
endheader
time	/jointset/ground_pelvis/pelvis_tilt/value	/jointset/ground_pelvis/pelvis_tx/value	/jointset/ground_pelvis/pelvis_ty/value	/jointset/hip_l/hip_flexion_l/value	/jointset/hip_l/hip_adduction_l/value	/jointset/hip_l/hip_rotation_l/value	/jointset/back/lumbar_extension/value	/jointset/patellofemoral_l/patellar_flexion_l/value	/jointset/knee_l/knee_flexion_l/value	/jointset/knee_l/knee_adduction_l/value	/jointset/knee_l/knee_rotation_l/value	/jointset/ankle_l/ankle_angle_l/value	/jointset/subtalar_l/subtalar_angle_l/value	/jointset/ground_pelvis/pelvis_tilt/speed	/jointset/ground_pelvis/pelvis_tx/speed	/jointset/ground_pelvis/pelvis_ty/speed	/jointset/hip_l/hip_flexion_l/speed	/jointset/hip_l/hip_adduction_l/speed	/jointset/hip_l/hip_rotation_l/speed	/jointset/back/lumbar_extension/speed	/jointset/patellofemoral_l/patellar_flexion_l/speed	/jointset/knee_l/knee_flexion_l/speed	/jointset/knee_l/knee_adduction_l/speed	/jointset/knee_l/knee_rotation_l/speed	/jointset/ankle_l/ankle_angle_l/speed	/jointset/subtalar_l/subtalar_angle_l/speed	/forceset/tau_hip_flexion_l	/forceset/tau_hip_adduction_l	/forceset/tau_hip_rotation_l	/forceset/tau_knee_flexion_l	/forceset/tau_ankle_angle_l	/forceset/tau_subtalar_angle_l	/forceset/tau_lumbar_extension	lambda_cid13_p0	lambda_cid13_p1	lambda_cid13_p2	lambda_cid13_p3	lambda_cid13_p4	lambda_cid13_p5	lambda_cid14_p0	/jointset/ground_pelvis/pelvis_tilt/accel	/jointset/ground_pelvis/pelvis_tx/accel	/jointset/ground_pelvis/pelvis_ty/accel	/jointset/hip_l/hip_flexion_l/accel	/jointset/hip_l/hip_adduction_l/accel	/jointset/hip_l/hip_rotation_l/accel	/jointset/back/lumbar_extension/accel	/jointset/patellofemoral_l/patellar_flexion_l/accel	/jointset/knee_l/knee_flexion_l/accel	/jointset/knee_l/knee_adduction_l/accel	/jointset/knee_l/knee_rotation_l/accel	/jointset/ankle_l/ankle_angle_l/accel	/jointset/subtalar_l/subtalar_angle_l/accel	gamma_cid13_p0	gamma_cid13_p1	gamma_cid13_p2	gamma_cid13_p3	gamma_cid13_p4	gamma_cid13_p5	gamma_cid14_p0
1	-0.5415895033114601	-0.0778836407770185	0.5754716272800791	1.823348470707951	-0.4683368786034423	0.01328584741008986	-0.2617833623263772	1.387765948322474	1.387765948322388	-0.0830029084012618	-0.1745262803444904	0.228030498900972	-0.00660398501502411	-0.01724057839779999	0.01045146597559635	0.002373857416903753	-0.001253354801628183	-0.002746032915842035	0.004623457452059866	-3.129859489129671e-05	0.001685744627298989	0.001685744627299256	-0.00684722712281362	-0.000190463277812107	0.01993897665960655	0.008187800948935748	-0.3291291672043439	0.01784065330791203	0.0001673030005444764	-0.3077954663786223	0.03743214046984212	0.02790800418441486	0.2819924872662607	-27.90253830625758	-7.782593947005467	1.53042336643921	6.963049165631022	-642.5496016146984	-45.72650300936378	-1.348686351667801	1.508144264232073	0.250681228820715	1.968857893453996	-6.814833131250875	-0.08759930023998878	-2.351539962424655	-0.02204181625994553	-5.312707268088914	-5.312707268088164	-0.6174620868320395	-0.05206308550330797	-0.6916238763643885	-0.4859357201422369	5.271817227946535e-09	2.058456127937677e-08	-1.306714469420396e-08	4.771028043634145e-09	-1.575082823620505e-09	2.030369519297939e-08	3.629750855924558e-09
1.01	-0.541687355743706	-0.07776664351792177	0.5755936816467218	1.822996414740732	-0.4683674365976616	0.01321359060739417	-0.2617838368945055	1.387517289242042	1.38751728924199	-0.08309932639896854	-0.1745289637113158	0.2281955605721367	-0.006544582802923526	-0.00232060345424674	0.01295065370551028	0.02203525671116635	-0.06915867383387268	-0.003334905394330903	-0.0190404369445056	-7.125058967671948e-05	-0.05141664414350186	-0.05141664414349425	-0.01242446023199097	-0.0002897978341575022	0.01307597962399649	0.003733143968043222	-0.3290884444359294	0.01798699118649059	0.0001537925596002705	-0.3076285488948373	0.03726246270077684	0.02792800008798406	0.2819635511313391	-27.94638925270364	-7.7876669010281	1.53587727920993	6.89671490650046	-642.4508682854395	-45.73317037703464	-1.353851050586448	1.485319114349984	0.249939427789604	1.964515055424238	-6.778507482444763	-0.03993514696537637	-2.368660383217004	0.003882775127268811	-5.308866052561262	-5.308866052560708	-0.5260677060389819	0.01960207715869647	-0.6832424410728124	-0.4191629225401812	6.629671331409219e-10	2.197616429748347e-08	3.369948727950309e-08	8.479784202680674e-09	-9.974759225820598e-09	6.747463358739497e-08	-5.623834839960892e-09
1.02	-0.5416357294255292	-0.07762457400498339	0.5759122968279095	1.821965280344541	-0.4684029641017281	0.01290572561974624	-0.2617849400493405	1.386737633999703	1.386737633999686	-0.08325115948438079	-0.1745309462801334	0.2282920713081626	-0.006528513607727317	0.01265517168662854	0.0154659167439283	0.04168602032590558	-0.1370690405954594	-0.00373993488530311	-0.0424981795388514	-0.0001570159358568873	-0.1045134877537264	-0.1045134877537179	-0.01793024466430418	-5.030367614833041e-05	0.006228789631846895	-0.0004788024319455311	-0.3290477216675277	0.01813332906507394	0.0001402821187066084	-0.3074616314110498	0.03709278493171549	0.027947995991561	0.2819346149964028	-27.99617248395575	-7.791719196939155	1.541189124959072	6.852175195870887	-642.4365899565427	-45.71825715084866	-1.369317204988894	1.519304303696477	0.2538962905215322	1.966730757549324	-6.815842677119312	-0.05083070273664995	-2.31030960198072	-0.03120448653888601	-5.311598235973649	-5.31159823597419	-0.6031723514592074	0.01570265736761895	-0.6884624676722961	-0.4373936039614728	-1.32727934936878e-08	-1.828555036126623e-09	7.15259446466014e-08	5.567559058271515e-09	-2.335511948672922e-08	1.22469139994187e-07	-2.235428424853645e-08
1.03	-0.5414342664445023	-0.07745724237413232	0.5764272603687229	1.820255346712327	-0.4684421539497048	0.01236370850572052	-0.261786835678225	1.385427073547463	1.385427073547483	-0.08345795226406669	-0.174530014797815	0.2283198954801316	-0.006554198427787571	0.02762586949299501	0.01800591407001938	0.06129433827786221	-0.2048849817184849	-0.004119628147179939	-0.06593083105317506	-0.0001994103715733768	-0.1575944633341077	-0.1575944633340568	-0.02344192842387161	0.0001770214518941969	-0.0006905714070819389	-0.00470136248182847	-0.3287043047850751	0.01824179774326512	8.625073687793622e-05	-0.3071462634094715	0.03696109377465948	0.02805153338049497	0.2817101954728333	-28.01286917410695	-7.846765948720139	1.564818706312055	6.759428468221852	-642.1113087028017	-45.7827092352608	-1.395273869301945	1.484215188820912	0.2548776496591277	1.956022441528521	-6.759568986863339	-0.03478555620392185	-2.36360564721745	0.01264799837306838	-5.305718381065871	-5.305718381059168	-0.5272253530166466	0.01733896770320922	-0.6976671817053161	-0.421175832252054	-2.730372667696578e-08	-2.589037969985642e-08	1.092611757422036e-07	2.587772880153589e-09	-3.678630305231857e-08	1.77543478727636e-07	-3.916102818479257e-08
1.04	-0.5410834439514683	-0.07726434553081915	0.5771379351145579	1.817868233837488	-0.4684857901139584	0.01158659233233472	-0.2617884742673777	1.383585829107021	1.383585829107077	-0.08372027367431453	-0.1745285917585349	0.2282777271897707	-0.006623406573696701	0.04252707408793023	0.0205789592363524	0.08082826133020855	-0.2725048891202774	-0.004629198140683078	-0.08951799140986896	-0.000105607988845187	-0.2106502853943091	-0.2106502853942125	-0.02903597077588491	4.800766716284839e-05	-0.007769702834096376	-0.009183467601725084	-0.3283608879026282	0.01835026642144518	3.221935505654358e-05	-0.3068308954078929	0.03682940261760138	0.02815507076941317	0.2814857759492598	-28.03557198566059	-7.900840624104148	1.58838417139991	6.688704755401689	-641.8712117036424	-45.82603185467821	-1.432037932078459	1.505405661410233	0.2605058585699033	1.951851777627273	-6.776635932872671	-0.07680604906183058	-2.341211370454688	-0.003965122849952941	-5.306567531937688	-5.306567531937572	-0.6196440699483512	-0.05556512518699842	-0.7204165452894332	-0.4893026179641126	-2.756717764270571e-08	-1.424487811998288e-08	1.565872212280666e-07	8.467816569814573e-09	-4.250570355284908e-08	2.160701051221209e-07	-4.448014470881887e-08
1.05	-0.5405836255218259	-0.07704553839107094	0.578043531098651	1.814805863961403	-0.4685342734617317	0.01057381195195547	-0.2617889334340762	1.381214295298683	1.381214295298568	-0.08403847186903751	-0.1745285862768219	0.2281641476439582	-0.00673747422538144	0.05745680682449221	0.02318923527659469	0.1002739609607826	-0.3399386088844486	-0.004997359763406222	-0.1129646456620019	-6.106869355352842e-06	-0.2636384393379872	-0.263638439337954	-0.03456705697127199	6.32990156768495e-05	-0.01495443541948335	-0.01354463716453936	-0.3276841643885866	0.01862463758643566	-4.549424448678639e-05	-0.3063692704951363	0.03678392422628558	0.02831060091845498	0.2810025352312593	-28.00881208198439	-7.993951870135588	1.627077474279135	6.545528052520017	-641.2991698901322	-45.92892567905933	-1.480102572381333	1.489781479982392	0.2623064483891817	1.938373224465953	-6.722174232482378	-0.006326740920593663	-2.335407450689864	0.01392550156266088	-5.292223847150971	-5.292223847160534	-0.5143650197891872	0.04665765718121723	-0.718733666636207	-0.3967344855479522	-2.740039478914764e-08	-1.483522594996939e-09	2.042129796636252e-07	1.46247299428436e-08	-4.798411083259654e-08	2.540796155060132e-07	-4.944027287621305e-08
1.06	-0.5399339048847768	-0.07680042489659278	0.5791430729127887	1.811070070040815	-0.4685843395301413	0.0093287620294236	-0.2617889940351405	1.378313423046596	1.37831342304631	-0.08441088575081475	-0.1745251116030848	0.2279784743619967	-0.006892595644715897	0.0725075155691845	0.02584023018234496	0.1196174273390957	-0.4071896980203413	-0.004945742267845849	-0.1359718998380273	-2.589486129647774e-05	-0.3165179741443889	-0.316517974144419	-0.03987910818487286	0.0007418460566124216	-0.02218845006378553	-0.01739422113167053	-0.3270074408745684	0.01889900875139663	-0.000123207844064529	-0.3059076455823795	0.0367384458349649	0.0284661310674562	0.2805192945132394	-27.98813930051784	-8.086069337071669	1.665694736500148	6.424484203722494	-640.8133035015107	-46.01176803126132	-1.539935423079304	1.529600863036291	0.2686496316715009	1.931405127175104	-6.74010980721696	0.007149774594862567	-2.253331355233217	-0.02782294513616765	-5.284843704482388	-5.284843704482278	-0.5758370735911131	0.07708601329729645	-0.730272957072474	-0.3869854988275001	-3.834695256544437e-08	-1.740641093120178e-08	2.462773036139946e-07	1.408827362671009e-08	-5.957616011654319e-08	3.033652266940754e-07	-6.353034434412976e-08
1.07	-0.5391332840777655	-0.07652856179432357	0.5804354217144163	1.806663056055925	-0.4686322126168941	0.00785559246424886	-0.261789533998955	1.374884392996805	1.374884392996525	-0.08483571718305366	-0.1745124231000609	0.2277199970763412	-0.007084324595365602	0.08761387165941134	0.02854255302106275	0.1388236616021704	-0.4741434320281221	-0.004598089502691485	-0.1586125055492092	-6.865206682784742e-05	-0.3692609311802553	-0.3692609311802924	-0.04508630592319785	0.001823318826744196	-0.02953614523486599	-0.02092887210374572	-0.3260045784329317	0.01914314030497729	-0.0002375488143683392	-0.30530438710082	0.03679477787646029	0.02868951666442263	0.2798246392966581	-27.9120564393092	-8.22582055147549	1.721571928825523	6.224176621244315	-639.9892437020535	-46.15867393143552	-1.6121677573084	1.500729168252019	0.2725506489542395	1.91091740102341	-6.662564249634923	0.05316133342876169	-2.262048597689435	0.009514766863136494	-5.264940180746872	-5.264940180747994	-0.4930585028789721	0.1278679955679537	-0.7413883301694868	-0.3333286503645401	-4.988464548162705e-08	-3.48550569195978e-08	2.880458065811093e-07	1.31957870079615e-08	-7.149340312411748e-08	3.532506304781042e-07	-7.810605109398922e-08
1.08	-0.5381816844726047	-0.07622937005587077	0.5819189698237047	1.801588592920543	-0.4686756915148048	0.006157492158233261	-0.2617900981597989	1.370928749681133	1.370928749680858	-0.08531260006846382	-0.1744880818519921	0.227387168732366	-0.007310724806529452	0.1027032751990857	0.03130595741906777	0.1578572888712372	-0.5406795281189541	-0.004066904499415116	-0.1809580480055429	-3.073426736796715e-05	-0.4218406273204462	-0.4218406273204906	-0.05028939881855512	0.00307239506474741	-0.03705866172769262	-0.02432847323450266	-0.3250017159912958	0.01938727185855117	-0.0003518897846486914	-0.3047011286192606	0.03685110991795382	0.02891290226137882	0.2791299840800773	-27.84208325277093	-8.364438757188681	1.777196297985979	6.046020245458484	-639.2517700650374	-46.28735056809806	-1.697537890028084	1.526210352925789	0.2808659435289487	1.896883728373552	-6.656582223827204	0.04385622221924322	-2.194318704263587	-0.01168794413794504	-5.252191525347313	-5.252191525347238	-0.5750161049975789	0.1106067068715455	-0.7652372214217061	-0.3599755305638733	-5.545371216678558e-08	-4.083820197553784e-08	3.223230584190889e-07	1.411995034765141e-08	-7.932647929412e-08	3.859247490590037e-07	-8.651925994414731e-08
